HIERARCHY
ROOT Hips
{
     OFFSET 1.88212 96.90440 -13.34250
     CHANNELS 6 Xposition Yposition Zposition Zrotation Xrotation Yrotation
     JOINT Spine
     {
          OFFSET 0.00000 11.89050 0.00000
          CHANNELS 3 Zrotation Xrotation Yrotation
          JOINT Spine1
          {
               OFFSET -0.00000 25.65740 0.12766
               CHANNELS 3 Zrotation Xrotation Yrotation
               JOINT HEad
               {
                    OFFSET 0.00000 8.73416 0.01134
                    CHANNELS 3 Zrotation Xrotation Yrotation
                    End Site
                    {
                         OFFSET -0.29000 12.77420 2.51395
                    }
               }
               JOINT LeftShoulder1
               {
                    OFFSET 8.99000 -0.36225 -0.22000
                    CHANNELS 3 Zrotation Xrotation Yrotation
                    JOINT LeftArm
                    {
                         OFFSET 10.28270 -0.00338 0.32212
                         CHANNELS 3 Zrotation Xrotation Yrotation
                         JOINT LeftForeArm
                         {
                              OFFSET 32.76690 0.09914 -1.42434
                              CHANNELS 3 Zrotation Xrotation Yrotation
                              JOINT LeftHand
                              {
                                   OFFSET 27.56430 0.08536 1.02216
                                   CHANNELS 3 Zrotation Xrotation Yrotation
                                   End Site
                                   {
                                        OFFSET 16.74430 -0.60000 1.50291
                                   }
                              }
                         }
                    }
               }
               JOINT RightShoulder
               {
                    OFFSET -8.99000 -0.36225 -0.22000
                    CHANNELS 3 Zrotation Xrotation Yrotation
                    JOINT RightArm
                    {
                         OFFSET -10.28270 -0.00338 0.32212
                         CHANNELS 3 Zrotation Xrotation Yrotation
                         JOINT RightForeArm
                         {
                              OFFSET -32.89710 0.09914 -1.42434
                              CHANNELS 3 Zrotation Xrotation Yrotation
                              JOINT RightHand
                              {
                                   OFFSET -27.49210 0.08536 1.02216
                                   CHANNELS 3 Zrotation Xrotation Yrotation
                                   End Site
                                   {
                                        OFFSET -16.63120 -0.60000 1.50291
                                   }
                              }
                         }
                    }
               }
          }
     }
     JOINT LeftUpLeg
     {
          OFFSET 8.94580 -8.66707 0.10165
          CHANNELS 3 Zrotation Xrotation Yrotation
          JOINT LeftLeg
          {
               OFFSET 0.00000 -44.42270 1.37270
               CHANNELS 3 Zrotation Xrotation Yrotation
               JOINT LeftFoot
               {
                    OFFSET -0.25355 -42.09240 -1.46059
                    CHANNELS 3 Zrotation Xrotation Yrotation
                    JOINT LeftToes
                    {
                         OFFSET -0.04000 -4.41509 8.49910
                         CHANNELS 3 Zrotation Xrotation Yrotation
                         End Site
                         {
                              OFFSET 0.08000 -0.04745 9.77979
                         }
                    }
               }
          }
     }
     JOINT RightUpLeg
     {
          OFFSET -8.94580 -8.66707 0.10165
          CHANNELS 3 Zrotation Xrotation Yrotation
          JOINT RightLeg
          {
               OFFSET 0.00000 -44.42270 1.37270
               CHANNELS 3 Zrotation Xrotation Yrotation
               JOINT RightFoot
               {
                    OFFSET 0.25355 -42.09240 -1.46059
                    CHANNELS 3 Zrotation Xrotation Yrotation
                    JOINT RightToes
                    {
                         OFFSET 0.04000 -4.41509 8.49910
                         CHANNELS 3 Zrotation Xrotation Yrotation
                         End Site
                         {
                              OFFSET -0.08000 -0.13745 9.77979
                         }
                    }
               }
          }
     }
}
MOTION
Frames: 12
Frame Time: 0.01667
43.31295 83.03383 -121.77699 1.15673 -5.47531 -31.23919 -8.63012 26.70546 4.75822 -0.04011 0.09571 0.02207 -11.12728 4.65481 16.89957 -21.03507 32.25760 10.65919 -108.83289 -62.18885 -85.13171 -48.22252 55.50378 -84.85167 2.38824 4.40344 4.91461 -16.60623 38.41441 15.92134 84.12971 -26.84206 85.13956 42.76388 49.67648 83.46783 -5.00891 5.67332 -5.20784 9.75494 -22.20905 16.14872 33.56575 25.33788 -17.41387 -6.65421 -0.09992 0.04814 -20.42237 -19.26026 8.35133 -16.98915 -29.96536 -16.57339 -26.61347 47.70980 45.30025 30.32742 0.07617 0.16040 -26.82145 -27.42425 -3.08064 
43.70462 79.68646 -122.23927 0.97578 -4.54171 -27.93070 -9.85127 31.07986 3.34143 -0.03768 0.08582 0.01546 -11.32480 2.67051 17.09876 -19.43144 29.18695 8.78401 -105.59141 -61.44672 -79.87212 -43.62053 55.96769 -88.74081 8.82931 2.73698 1.50665 -12.99668 34.91468 14.84122 74.20327 -24.12134 74.44817 33.10534 46.24384 93.93216 -5.31933 6.42844 -0.76934 10.46635 -28.17930 13.11730 36.16970 32.87441 -17.05105 -3.54209 -0.13562 0.08858 -28.01718 -14.20074 -1.12300 -18.94317 -34.53447 -19.46837 -36.78650 54.65007 53.18041 36.23269 0.13891 0.22497 -32.36725 -33.55469 -2.72420 
44.19932 75.45425 -122.87418 1.26711 -3.66457 -22.99685 -10.93503 36.04613 1.15702 -0.03539 0.07364 0.01493 -11.98323 0.47645 17.23170 -28.23070 32.47844 14.59527 -106.83843 -55.70891 -91.10244 -40.15107 55.89983 -91.39877 3.18731 7.07112 -0.05858 -8.30873 31.23140 13.33513 68.06604 -21.51844 68.42153 27.33318 43.10941 99.88049 -5.15533 9.92634 1.92502 9.54883 -36.45811 8.50365 40.75309 40.61325 -19.94377 -1.27925 -0.07371 0.06086 -32.86335 -18.46271 -4.15597 -23.18958 -39.41553 -23.68609 -49.37716 61.77398 63.68554 42.06653 0.14997 0.17388 -38.57011 -38.87197 -2.92751 
44.69710 71.00871 -123.66753 1.55657 -3.07342 -18.58322 -12.81604 41.50616 0.70701 -0.03489 0.06322 0.00958 -13.15347 -1.86314 17.21789 -23.24985 28.44100 10.40879 -104.49832 -55.46986 -87.84764 -37.56930 55.56606 -93.50295 7.09792 5.56900 -2.16913 -3.24683 27.20722 11.65526 64.47758 -19.48650 65.18372 23.78259 40.89410 103.53229 -4.86061 9.49476 3.89466 7.83857 -45.78794 4.26804 48.16352 48.51310 -27.02370 0.54081 -0.04583 0.04506 -37.17875 -17.56135 -8.94769 -28.34804 -44.46908 -26.94646 -68.89129 68.26537 81.31741 48.07082 0.16435 0.15904 -44.80442 -43.80663 -3.18005 
45.15859 66.12371 -124.56445 1.89819 -2.71132 -14.58122 -15.72618 47.18149 2.15236 -0.03753 0.05259 0.01194 -14.88402 -4.38353 16.86672 -18.51617 24.16552 6.93775 -102.05004 -54.82116 -85.09187 -35.49644 55.29487 -95.62459 4.36654 8.06435 -2.53432 1.63381 22.92371 10.27115 62.71552 -18.24614 63.69890 22.62698 43.49056 108.49294 -7.39230 12.71238 1.89853 5.14819 -55.68709 0.12938 59.53473 55.66752 -39.38153 2.27181 -0.03172 0.04199 -41.29454 -19.26390 -12.04009 -34.07221 -49.35921 -29.17671 -99.41518 70.17493 109.80554 55.92384 0.28471 0.19431 -51.55094 -49.10852 -4.53462 
45.49696 61.16511 -125.51704 2.29715 -2.52568 -10.96579 -20.10070 52.74661 5.80106 -0.04047 0.04344 0.00809 -17.18067 -7.18729 16.06926 -13.60965 19.78841 3.83817 -99.95500 -54.06260 -82.82072 -33.97454 54.92987 -97.79238 6.69133 7.31014 -3.49515 6.41869 18.43059 8.80047 61.95393 -17.48683 63.34943 21.84833 44.71130 111.67607 4.98511 4.62229 10.57052 1.48360 -65.53111 -4.09205 75.03975 60.72573 -57.12645 4.23395 -0.02267 0.04394 -44.44426 -19.87100 -15.01213 -40.04344 -53.68821 -30.32275 -127.23527 68.40419 136.39137 63.56151 0.26107 0.10374 -58.56677 -53.58918 -5.66364 
45.74257 56.05897 -126.32303 2.72905 -2.48688 -7.69868 -26.60827 57.65414 12.27665 -0.04767 0.01790 0.00483 -18.58809 -9.44459 14.27040 -8.75882 15.32452 1.31987 -97.70073 -53.09468 -80.62182 -32.92517 54.53500 -100.13609 5.25268 8.95912 -3.19176 1.65570 16.06265 16.82358 70.70022 -25.07777 63.93995 20.86768 45.69305 114.67352 -4.85630 12.55404 1.19471 -2.42667 -74.90038 -7.92988 92.61256 64.62230 -78.29620 8.31151 -0.02709 0.09497 -47.64356 -21.24841 -17.18067 -45.87934 -57.18833 -30.24075 -146.57083 64.20155 155.33893 71.43793 0.24127 0.05020 -98.18588 -58.70990 -39.22828 
45.84204 51.23845 -126.94157 3.20744 -2.58405 -4.78828 -35.79218 61.32974 22.03104 -0.04981 0.00255 0.00403 -19.10943 -11.04973 11.78463 -3.67360 11.06101 -0.87869 -95.88579 -52.01505 -78.85814 -32.43253 54.02024 -102.36243 6.52585 8.62244 -3.06916 8.22320 11.89658 12.94862 68.10397 -22.15229 66.82864 21.73499 44.00027 113.95184 0.68130 7.60188 5.68153 -3.06805 -83.32744 -8.04965 110.82647 66.74662 -101.15627 13.81447 0.00164 0.10576 -50.12624 -22.46638 -18.60351 -50.78366 -59.64650 -28.34213 -158.69536 59.61181 167.95619 79.55524 0.22206 0.00062 -91.52027 -61.26601 -27.24126 
45.93526 46.95178 -127.21692 3.70491 -2.82906 -2.22342 -44.55968 63.38898 31.69805 0.03976 -0.05090 -0.03890 -19.56507 -13.01028 9.32164 0.06931 7.45367 -2.25184 -94.03509 -50.77359 -77.28884 -32.30863 53.38634 -104.30909 5.50967 9.81827 -2.29147 12.96540 8.35912 9.96015 65.62208 -19.41130 71.70775 22.60321 44.99121 115.13310 -8.38411 13.13759 -2.80559 4.14723 -90.00000 0.00000 124.34937 66.66086 -119.71519 18.77340 0.01001 0.04241 -52.39021 -22.83631 -18.83025 -53.76406 -60.80486 -23.96174 -166.48792 55.91616 176.94926 87.85064 0.20093 -0.04608 -106.08648 -62.85475 -37.10242 
45.96855 43.38560 -127.20983 4.19620 -3.20337 0.00504 -51.83775 64.17148 40.08950 0.03966 -0.04650 -0.03962 -19.70929 -15.34537 6.67870 2.98643 4.68062 -3.26191 -92.53095 -49.48897 -76.30094 -32.48481 52.65859 -105.86395 5.89134 9.67823 -1.76621 16.46980 5.58680 7.58937 64.24821 -18.15045 74.39545 23.12503 45.61225 116.75637 5.98722 7.13722 9.72483 139.08894 -84.22942 135.89865 132.95212 66.75364 -133.19424 23.57812 0.00094 0.00154 -54.03508 -22.86128 -18.62105 -54.49743 -60.53423 -17.27316 -171.96121 53.57706 183.98552 96.03207 0.17698 -0.08367 -109.12727 -64.65528 -35.15072 
46.20238 40.74885 -126.86283 4.65233 -3.69104 1.93346 -56.82089 64.07198 46.31043 0.03903 -0.05004 -0.04331 -19.51254 -17.91947 4.07486 -1.78895 -6.50053 -0.47976 -80.11293 -42.95169 -68.93134 -31.56167 49.70987 -107.16179 14.30283 19.59319 -11.38144 13.58549 -2.81886 13.47328 68.24177 -22.75801 70.80581 26.67034 45.79284 113.99413 -2.55847 10.14075 -4.22098 136.17883 -80.92647 133.97736 139.36499 67.72295 -143.73703 28.29168 -0.00632 -0.01645 -55.22951 -22.34244 -17.93254 -54.11140 -58.70412 -9.84590 -177.85094 52.41727 191.22466 90.40759 -0.10053 0.04831 -104.77444 -66.04256 -38.01938 
46.56244 38.98674 -126.37090 5.07902 -4.26807 3.59994 -59.53960 63.42733 50.29405 0.03102 -0.03983 -0.03755 -18.89193 -20.73701 1.49091 0.05423 -6.53275 -1.44563 -87.47506 -40.52346 -79.01517 -33.45128 49.13404 -102.50388 2.27499 7.75379 1.89136 16.30531 -3.28624 10.69574 68.15868 -22.14529 74.29930 28.42466 46.40219 113.70600 5.88408 17.49355 17.84298 129.92511 -79.11864 128.65941 145.63025 69.26857 -153.16849 32.78028 -0.00700 -0.01794 -56.04411 -21.99271 -17.27548 -53.29073 -55.77421 -2.76525 -181.72353 53.09376 194.46187 85.39829 -0.06157 0.12122 -92.94668 -67.19695 -32.81013 
